<?xml version="1.0" standalone="no"?>
<!DOCTYPE svg PUBLIC "-//W3C//DTD SVG 20010904//EN"
 "http://www.w3.org/TR/2001/REC-SVG-20010904/DTD/svg10.dtd">
<svg version="1.0" xmlns="http://www.w3.org/2000/svg"
 width="700.000000pt" height="700.000000pt" viewBox="0 0 700.000000 700.000000"
 preserveAspectRatio="xMidYMid meet">
<metadata>
Created by potrace 1.14, written by Peter Selinger 2001-2017
</metadata>
<g transform="translate(0.000000,700.000000) scale(0.100000,-0.100000)"
fill="#000000" stroke="none">
<path d="M3420 6500 c-19 -4 -49 -10 -66 -14 -91 -18 -282 -135 -386 -236 -76
-75 -261 -243 -309 -282 -153 -122 -181 -128 -652 -143 -87 -3 -168 -7 -180
-10 -12 -2 -40 -6 -62 -9 -108 -14 -253 -70 -328 -127 -111 -85 -182 -197
-221 -351 -29 -113 -35 -170 -41 -403 -11 -437 -21 -464 -286 -747 -161 -171
-175 -186 -233 -263 -115 -151 -158 -262 -159 -405 -2 -213 85 -369 371 -668
172 -179 253 -289 271 -370 22 -96 24 -125 36 -461 9 -250 30 -355 96 -487 47
-95 110 -166 198 -223 87 -56 149 -78 296 -106 55 -11 137 -16 315 -20 430
-10 461 -22 742 -286 66 -63 126 -119 132 -124 213 -198 404 -285 586 -269 89
7 133 20 221 63 118 59 183 109 394 306 252 235 290 260 445 290 31 7 168 14
375 20 252 7 366 28 500 95 79 39 155 102 206 170 59 79 108 209 125 335 3 28
8 59 10 69 2 10 6 114 9 230 12 445 23 473 326 791 302 315 387 500 345 743
-13 75 -53 161 -120 261 -69 102 -76 109 -249 294 -138 147 -211 238 -243 303
-40 81 -48 152 -59 507 -3 98 -7 188 -10 200 -2 12 -6 40 -9 62 -19 146 -94
307 -185 395 -92 89 -240 156 -386 175 -22 3 -56 8 -75 10 -19 3 -123 7 -230
10 -449 12 -469 20 -760 294 -254 240 -348 308 -498 360 -67 23 -193 33 -252
21z"/>
</g>
</svg>
